<svg width="170" height="46" viewBox="0 0 170 46" fill="none" xmlns="http://www.w3.org/2000/svg">
<g clip-path="url(#clip0)">
<path d="M57.0847 15.1546C59.2446 15.1321 61.0344 15.6815 62.4542 16.8027C63.8899 17.9238 64.8259 19.4502 65.262 21.3817L60.9183 21.427C60.5901 20.6464 60.0877 20.0356 59.4111 19.5946C58.7505 19.1535 57.9642 18.9377 57.0522 18.9472C55.8523 18.9597 54.8889 19.4098 54.1621 20.2974C53.4354 21.185 53.0796 22.3648 53.095 23.8367C53.1103 25.3086 53.4906 26.4807 54.2357 27.353C54.9807 28.2093 55.9531 28.6312 57.1531 28.6187C58.065 28.6091 58.8466 28.377 59.4979 27.9222C60.1652 27.4672 60.6549 26.8541 60.9668 26.0828L65.3106 26.0375C64.9146 27.9617 64.0107 29.5072 62.5988 30.674C61.2027 31.8246 59.4247 32.4112 57.2648 32.4337C55.6169 32.4509 54.1653 32.106 52.9098 31.3991C51.6542 30.6761 50.6756 29.6623 49.9739 28.3575C49.2883 27.0526 48.9367 25.5602 48.9192 23.8803C48.9017 22.2003 49.2221 20.7009 49.8804 19.382C50.5546 18.0629 51.512 17.0368 52.7524 16.3039C53.9927 15.5549 55.4368 15.1718 57.0847 15.1546ZM80.8545 18.651L80.9941 32.0423L76.8663 32.0853L76.8411 29.6614C76.4653 30.4494 75.8958 31.0794 75.1327 31.5514C74.3856 32.0232 73.508 32.2643 72.5001 32.2748C70.9642 32.2909 69.7349 31.7916 68.8123 30.7772C67.9056 29.7626 67.443 28.3594 67.4243 26.5675L67.3432 18.7919L71.423 18.7493L71.4988 26.0209C71.5083 26.9329 71.7477 27.6424 72.2171 28.1496C72.7022 28.6405 73.3447 28.8818 74.1447 28.8735C74.9767 28.8648 75.6299 28.594 76.1043 28.061C76.5788 27.5281 76.811 26.7736 76.8008 25.7976L76.7267 18.694L80.8545 18.651ZM91.3692 28.4059L91.406 31.9337L89.5581 31.953C87.9902 31.9693 86.7622 31.5981 85.8743 30.8393C85.0021 30.0644 84.5567 28.7809 84.5381 26.989L84.4868 22.0693L82.6869 22.0881L82.6508 18.6323L84.4507 18.6135L84.4164 15.3257L88.5202 15.2829L88.5545 18.5707L91.2424 18.5427L91.2784 21.9985L88.5905 22.0265L88.6426 27.0182C88.6481 27.5462 88.7559 27.9131 88.9661 28.1189C89.1922 28.3246 89.5613 28.4247 90.0733 28.4194L91.3692 28.4059ZM105.854 27.0068C105.863 27.9027 105.64 28.7291 105.184 29.4859C104.744 30.2425 104.078 30.8495 103.187 31.3068C102.311 31.764 101.242 31.9991 99.9779 32.0123C98.074 32.0322 96.5012 31.5846 95.2596 30.6694C94.018 29.7543 93.3326 28.4654 93.2032 26.8027L97.571 26.7571C97.6416 27.3964 97.8709 27.8981 98.2587 28.262C98.6625 28.6259 99.1684 28.8046 99.7764 28.7983C100.304 28.7927 100.719 28.6444 101.02 28.3533C101.321 28.0621 101.469 27.6765 101.464 27.1966C101.459 26.7646 101.312 26.4061 101.021 26.1211C100.746 25.836 100.399 25.6076 99.9813 25.4359C99.5634 25.2483 98.985 25.0303 98.2464 24.782C97.1706 24.4252 96.287 24.0824 95.5956 23.7536C94.9199 23.4086 94.3306 22.9027 93.8276 22.2359C93.3405 21.553 93.0912 20.6675 93.0799 19.5796C93.0694 18.5716 93.3163 17.697 93.8206 16.9557C94.3249 16.2144 95.023 15.6471 95.9149 15.2538C96.8227 14.8443 97.8606 14.6335 99.0285 14.6213C100.916 14.6016 102.417 15.034 103.53 15.9184C104.66 16.8027 105.304 18.028 105.465 19.5944L101.025 19.6407C100.939 19.0816 100.727 18.6438 100.387 18.3273C100.064 17.9947 99.622 17.8313 99.0621 17.8371C98.5821 17.8421 98.1914 17.9742 97.8901 18.2333C97.6048 18.4923 97.4647 18.8698 97.4699 19.3658C97.4741 19.7658 97.6057 20.1084 97.8646 20.3937C98.1395 20.6629 98.4778 20.8834 98.8796 21.0552C99.2814 21.227 99.8597 21.445 100.615 21.7091C101.706 22.0658 102.598 22.4245 103.29 22.7853C103.982 23.1301 104.579 23.6439 105.082 24.3267C105.585 25.0095 105.843 25.9028 105.854 27.0068ZM116.383 18.1125C117.487 18.101 118.474 18.3707 119.343 18.9217C120.229 19.4565 120.925 20.2413 121.432 21.2761C121.955 22.2947 122.223 23.5079 122.238 24.9158C122.253 26.3078 122.009 27.5264 121.508 28.5717C121.023 29.6168 120.343 30.4239 119.469 30.993C118.611 31.546 117.63 31.8283 116.526 31.8398C115.502 31.8505 114.62 31.6276 113.879 31.1713C113.138 30.715 112.595 30.0887 112.251 29.2922L112.343 38.0997L108.239 38.1425L108.033 18.3676L112.137 18.3248L112.162 20.7487C112.49 19.9452 113.019 19.3077 113.75 18.836C114.481 18.3644 115.359 18.1232 116.383 18.1125ZM115.1 21.7261C114.236 21.7351 113.528 22.0385 112.974 22.6363C112.436 23.218 112.172 24.0127 112.183 25.0207C112.193 26.0126 112.473 26.8018 113.023 27.3881C113.589 27.9742 114.305 28.2627 115.168 28.2537C116.048 28.2446 116.749 27.9492 117.271 27.3678C117.809 26.7861 118.073 25.9833 118.062 24.9594C118.052 23.9354 117.771 23.1383 117.221 22.568C116.687 21.9976 115.98 21.7169 115.1 21.7261ZM129.384 17.977C130.408 17.9663 131.29 18.1891 132.031 18.6454C132.772 19.1017 133.322 19.728 133.683 20.5243L133.657 18.1004L137.737 18.0579L137.877 31.4491L133.797 31.4917L133.772 29.0678C133.428 29.8714 132.891 30.5091 132.159 30.9807C131.428 31.4524 130.551 31.6935 129.527 31.7042C128.423 31.7157 127.428 31.4541 126.543 30.9193C125.673 30.3683 124.976 29.5755 124.454 28.5409C123.947 27.5062 123.686 26.2928 123.672 24.9009C123.657 23.493 123.892 22.2745 124.378 21.2453C124.879 20.2001 125.558 19.4009 126.417 18.8479C127.291 18.2788 128.28 17.9885 129.384 17.977ZM130.741 21.563C129.861 21.5722 129.152 21.8676 128.614 22.4492C128.092 23.0307 127.837 23.8334 127.847 24.8574C127.858 25.8813 128.13 26.6785 128.664 27.249C129.214 27.8193 129.929 28.0998 130.809 28.0907C131.673 28.0816 132.374 27.7783 132.912 27.1807C133.466 26.5829 133.737 25.788 133.727 24.796C133.717 23.7881 133.428 22.9991 132.862 22.4289C132.312 21.8426 131.605 21.554 130.741 21.563ZM146.608 17.7974C148.336 17.7793 149.789 18.2442 150.967 19.192C152.145 20.1238 152.895 21.42 153.216 23.0808L148.872 23.126C148.738 22.5514 148.469 22.1062 148.066 21.7904C147.663 21.4746 147.157 21.3198 146.549 21.3262C145.829 21.3337 145.24 21.6278 144.782 22.2086C144.324 22.7734 144.101 23.5998 144.112 24.6878C144.123 25.7757 144.364 26.6052 144.834 27.1764C145.304 27.7315 145.899 28.0053 146.619 27.9978C147.227 27.9915 147.729 27.8262 148.126 27.5021C148.522 27.1779 148.782 26.7272 148.904 26.1499L153.247 26.1046C152.961 27.7717 152.238 29.0913 151.081 30.0634C149.922 31.0195 148.479 31.5066 146.752 31.5246C145.44 31.5383 144.269 31.2785 143.239 30.7452C142.225 30.1957 141.425 29.404 140.838 28.3701C140.252 27.3362 139.951 26.1232 139.936 24.7313C139.922 23.3234 140.189 22.1045 140.738 21.0747C141.303 20.0288 142.095 19.2285 143.113 18.6738C144.131 18.1032 145.296 17.811 146.608 17.7974ZM168.089 24.0777C168.093 24.4137 168.057 24.7821 167.981 25.1829L158.693 25.2798C158.752 26.2872 159.015 27.0125 159.484 27.4556C159.952 27.8828 160.547 28.0926 161.267 28.0851C161.875 28.0787 162.377 27.9215 162.774 27.6133C163.171 27.3052 163.431 26.9105 163.554 26.4292L167.897 26.3839C167.731 27.3296 167.356 28.1816 166.772 28.9397C166.188 29.6819 165.442 30.2737 164.534 30.7152C163.627 31.1406 162.613 31.3592 161.493 31.3709C160.181 31.3846 159.01 31.1248 157.981 30.5915C156.967 30.042 156.167 29.2503 155.58 28.2164C154.993 27.1824 154.692 25.9695 154.678 24.5776C154.663 23.1697 154.93 21.9508 155.48 20.921C156.045 19.8751 156.836 19.0748 157.855 18.5201C158.873 17.9495 160.038 17.6573 161.35 17.6437C162.678 17.6298 163.848 17.8896 164.862 18.4231C165.876 18.9565 166.66 19.7164 167.214 20.7027C167.784 21.6728 168.076 22.7978 168.089 24.0777ZM163.931 23.4971C163.938 22.6169 163.691 21.9635 163.19 21.5367C162.706 21.0937 162.104 20.876 161.384 20.8835C160.632 20.8913 160.01 21.1218 159.519 21.575C159.027 22.0281 158.754 22.687 158.699 23.5516L163.931 23.4971Z" fill="#323232"/>
<path fill-rule="evenodd" clip-rule="evenodd" d="M23.0034 23.6465L33.4908 12.922C27.6106 7.17173 18.0414 7.27507 12.2868 13.151C6.52911 19.03 6.62895 28.6054 12.5079 34.3631C18.3869 40.1207 27.9623 40.0209 33.72 34.1419L23.0034 23.6465Z" fill="#58BEBF"/>
</g>
<defs>
<clipPath id="clip0">
<rect width="168" height="44" fill="white" transform="translate(0.775177 1.87703) rotate(-0.597407)"/>
</clipPath>
</defs>
</svg>
