<svg width="70" height="70" viewBox="0 0 70 70" fill="none" xmlns="http://www.w3.org/2000/svg">
<circle cx="35" cy="35" r="35" fill="#F78434"/>
<path fill-rule="evenodd" clip-rule="evenodd" d="M48.7173 47.7317V26.8294L51.6967 23.8719V27.6609H53.9819V20H46.2636V22.2682H50.0809L46.1246 26.1951L40.7973 20.9074L28.0016 33.6081L22.8314 28.4763L15.5451 35.7085L17.1609 37.3123L20.4751 34.0228V47.7318H15.0962V50H54.0962V47.7318H48.7173V47.7317ZM42.6235 25.9278V47.7317H37.643V27.246L40.7973 24.1152L42.6235 25.9278ZM28.0016 36.8159L26.5688 35.3936V47.7317H31.5493V33.2945L28.0016 36.8159Z" fill="white"/>
<path d="M48.7173 26.8294L48.365 26.4745L48.2173 26.6212V26.8294H48.7173ZM51.6967 23.8719H52.1967V22.6711L51.3445 23.5171L51.6967 23.8719ZM51.6967 27.6609H51.1967V28.1609H51.6967V27.6609ZM53.9819 27.6609V28.1609H54.4819V27.6609H53.9819ZM53.9819 20H54.4819V19.5H53.9819V20ZM46.2636 20V19.5H45.7636V20H46.2636ZM46.2636 22.2682H45.7636V22.7682H46.2636V22.2682ZM50.0809 22.2682L50.4331 22.6231L51.2944 21.7682H50.0809V22.2682ZM46.1246 26.1951L45.7724 26.55L46.1246 26.8996L46.4768 26.55L46.1246 26.1951ZM40.7973 20.9074L41.1495 20.5526L40.7973 20.2029L40.4451 20.5526L40.7973 20.9074ZM28.0016 33.6081L27.6494 33.963L28.0016 34.3126L28.3539 33.963L28.0016 33.6081ZM22.8314 28.4763L23.1836 28.1214L22.8314 27.7718L22.4792 28.1214L22.8314 28.4763ZM15.5451 35.7085L15.1929 35.3536L14.8354 35.7085L15.1929 36.0633L15.5451 35.7085ZM17.1609 37.3123L16.8087 37.6672L17.1609 38.0168L17.5132 37.6672L17.1609 37.3123ZM20.4751 34.0228H20.9751V32.8221L20.1229 33.668L20.4751 34.0228ZM20.4751 47.7318V48.2318H20.9751V47.7318H20.4751ZM15.0962 47.7318V47.2318H14.5962V47.7318H15.0962ZM15.0962 50H14.5962V50.5H15.0962V50ZM54.0962 50V50.5H54.5962V50H54.0962ZM54.0962 47.7318H54.5962V47.2318H54.0962V47.7318ZM48.7173 47.7318H48.2173V48.2318H48.7173V47.7318ZM42.6235 47.7317V48.2317H43.1235V47.7317H42.6235ZM42.6235 25.9278H43.1235V25.7195L42.9758 25.5729L42.6235 25.9278ZM37.643 47.7317H37.143V48.2317H37.643V47.7317ZM37.643 27.246L37.2908 26.8912L37.143 27.0378V27.246H37.643ZM40.7973 24.1152L41.1495 23.7603L40.7973 23.4107L40.4451 23.7603L40.7973 24.1152ZM26.5688 35.3936L26.921 35.0388L26.0688 34.1928V35.3936H26.5688ZM28.0016 36.8159L27.6493 37.1707L28.0016 37.5204L28.3538 37.1707L28.0016 36.8159ZM26.5688 47.7317H26.0688V48.2317H26.5688V47.7317ZM31.5493 47.7317V48.2317H32.0493V47.7317H31.5493ZM31.5493 33.2945H32.0493V32.0937L31.197 32.9396L31.5493 33.2945ZM48.2173 26.8294V47.7317H49.2173V26.8294H48.2173ZM51.3445 23.5171L48.365 26.4745L49.0695 27.1842L52.049 24.2268L51.3445 23.5171ZM52.1967 27.6609V23.8719H51.1967V27.6609H52.1967ZM53.9819 27.1609H51.6967V28.1609H53.9819V27.1609ZM53.4819 20V27.6609H54.4819V20H53.4819ZM46.2636 20.5H53.9819V19.5H46.2636V20.5ZM46.7636 22.2682V20H45.7636V22.2682H46.7636ZM50.0809 21.7682H46.2636V22.7682H50.0809V21.7682ZM46.4768 26.55L50.4331 22.6231L49.7287 21.9133L45.7724 25.8402L46.4768 26.55ZM40.4451 21.2623L45.7724 26.55L46.4768 25.8402L41.1495 20.5526L40.4451 21.2623ZM28.3539 33.963L41.1495 21.2623L40.4451 20.5526L27.6494 33.2533L28.3539 33.963ZM22.4792 28.8312L27.6494 33.963L28.3539 33.2533L23.1836 28.1214L22.4792 28.8312ZM15.8973 36.0633L23.1836 28.8312L22.4792 28.1214L15.1929 35.3536L15.8973 36.0633ZM17.5132 36.9574L15.8973 35.3536L15.1929 36.0633L16.8087 37.6672L17.5132 36.9574ZM20.1229 33.668L16.8087 36.9574L17.5132 37.6672L20.8273 34.3777L20.1229 33.668ZM20.9751 47.7318V34.0228H19.9751V47.7318H20.9751ZM15.0962 48.2318H20.4751V47.2318H15.0962V48.2318ZM15.5962 50V47.7318H14.5962V50H15.5962ZM54.0962 49.5H15.0962V50.5H54.0962V49.5ZM53.5962 47.7318V50H54.5962V47.7318H53.5962ZM48.7173 48.2318H54.0962V47.2318H48.7173V48.2318ZM48.2173 47.7317V47.7318H49.2173V47.7317H48.2173ZM43.1235 47.7317V25.9278H42.1235V47.7317H43.1235ZM37.643 48.2317H42.6235V47.2317H37.643V48.2317ZM37.143 27.246V47.7317H38.143V27.246H37.143ZM40.4451 23.7603L37.2908 26.8912L37.9953 27.6009L41.1495 24.47L40.4451 23.7603ZM42.9758 25.5729L41.1495 23.7603L40.4451 24.47L42.2713 26.2826L42.9758 25.5729ZM26.2165 35.7485L27.6493 37.1707L28.3538 36.461L26.921 35.0388L26.2165 35.7485ZM27.0688 47.7317V35.3936H26.0688V47.7317H27.0688ZM31.5493 47.2317H26.5688V48.2317H31.5493V47.2317ZM31.0493 33.2945V47.7317H32.0493V33.2945H31.0493ZM28.3538 37.1707L31.9015 33.6494L31.197 32.9396L27.6493 36.461L28.3538 37.1707Z" fill="white"/>
</svg>
